<svg width="65" height="64" viewBox="0 0 65 64" fill="none" xmlns="http://www.w3.org/2000/svg">
<g clip-path="url(#clip0_6_336)">
<rect x="0.399902" width="64" height="64" rx="16" fill="#341414"/>
<path d="M64.3999 55.1111C64.3999 60.0213 60.4212 64 55.511 64H9.28879C4.38035 64 0.399902 60.0213 0.399902 55.1111V8.88889C0.399902 3.97867 4.38035 0 9.28879 0H55.511C60.4212 0 64.3999 3.97867 64.3999 8.88889V55.1111Z" fill="#0288D1"/>
<path d="M20.9553 23.1111H12.0664V53.3333H20.9553V23.1111Z" fill="white"/>
<path d="M16.4842 19.5556H16.4344C13.782 19.5556 12.0664 17.5787 12.0664 15.1094C12.0664 12.5867 13.8353 10.6667 16.5357 10.6667C19.2397 10.6667 20.9055 12.5867 20.9553 15.1094C20.9553 17.577 19.2397 19.5556 16.4842 19.5556Z" fill="white"/>
<path d="M54.7335 53.3333H45.8446V37.1573C45.8446 33.2497 43.6668 30.5831 40.17 30.5831C37.5015 30.5831 36.058 32.3822 35.3575 34.1209C35.1015 34.7431 35.178 36.464 35.178 37.3333V53.3333H26.2891V23.1111H35.178V27.7617C36.4597 25.7777 38.4668 23.1111 43.6011 23.1111C49.962 23.1111 54.7317 27.1111 54.7317 36.0426L54.7335 53.3333Z" fill="white"/>
</g>
<defs>
<clipPath id="clip0_6_336">
<rect x="0.399902" width="64" height="64" rx="16" fill="white"/>
</clipPath>
</defs>
</svg>
