<svg width="64" height="64" viewBox="0 0 64 64" fill="none" xmlns="http://www.w3.org/2000/svg">
<g clip-path="url(#clip0_6_288)">
<rect width="64" height="64" rx="16" fill="#341414"/>
<g clip-path="url(#clip1_6_288)">
<path d="M54.4 0H9.6C4.29807 0 0 4.29807 0 9.6V54.4C0 59.7019 4.29807 64 9.6 64H54.4C59.7019 64 64 59.7019 64 54.4V9.6C64 4.29807 59.7019 0 54.4 0Z" fill="#25D366"/>
<path d="M15.3757 49.1251L17.1257 41.0001C14.8764 37.4524 13.999 33.2059 14.658 29.0572C15.317 24.9086 17.4671 21.143 20.705 18.4669C23.9429 15.7909 28.046 14.3882 32.2445 14.5222C36.443 14.6562 40.4484 16.3175 43.5091 19.1946C46.5698 22.0717 48.4755 25.9667 48.8687 30.1489C49.2618 34.3311 48.1154 38.513 45.6446 41.9101C43.1737 45.3072 39.5482 47.6859 35.4482 48.6C31.3482 49.5142 27.0556 48.9008 23.3757 46.8751L15.3757 49.1251Z" fill="#25D366" stroke="white" stroke-width="3.25"/>
<path d="M38.5001 34.125C38.1251 33.875 37.7501 33.75 37.3751 34.25L35.8751 36.25C35.5001 36.5 35.2501 36.625 34.7501 36.375C32.8751 35.375 30.2501 34.25 28.0001 30.5C27.8751 30 28.1251 29.75 28.3751 29.5L29.5001 27.75C29.7501 27.5 29.6251 27.25 29.5001 27L28.0001 23.375C27.6251 22.375 27.2501 22.5 26.8751 22.5H25.8751C25.6251 22.5 25.1251 22.625 24.6251 23.125C21.8751 25.875 23.0001 29.75 25.0001 32.25C25.3751 32.75 27.8751 37.25 33.2501 39.625C37.2501 41.375 38.1251 41.125 39.2501 40.875C40.6251 40.75 42.0001 39.625 42.6251 38.5C42.7501 38.125 43.3751 36.5 42.8751 36.25" fill="white"/>
</g>
</g>
<defs>
<clipPath id="clip0_6_288">
<rect width="64" height="64" rx="16" fill="white"/>
</clipPath>
<clipPath id="clip1_6_288">
<rect width="64" height="64" rx="8.53333" fill="white"/>
</clipPath>
</defs>
</svg>
